<svg width="183" height="34" viewBox="0 0 183 34" fill="none" xmlns="http://www.w3.org/2000/svg">
<path d="M42.816 30V7.92H53.024C56.3733 7.92 58.048 9.60533 58.048 12.976V15.088C58.048 15.8133 57.8347 16.432 57.408 16.944L56.288 18.288L57.632 19.408C58.336 19.984 58.688 20.8373 58.688 21.968V24.944C58.688 28.3147 57.0133 30 53.664 30H42.816ZM46.048 27.056H53.632C54.848 27.056 55.456 26.4587 55.456 25.264V21.776C55.456 20.56 54.848 19.952 53.632 19.952H46.048V27.056ZM46.048 17.008H52.992C54.208 17.008 54.816 16.4 54.816 15.184V12.656C54.816 11.4613 54.208 10.864 52.992 10.864H46.048V17.008ZM67.2155 30C63.9302 30 62.2875 28.368 62.2875 25.104C62.2875 21.84 63.9302 20.208 67.2155 20.208H72.6235V17.872C72.6235 16.6347 72.0048 16.016 70.7675 16.016H63.9195V14.384L65.3915 13.296H70.8315C74.0955 13.296 75.7275 14.928 75.7275 18.192V30H67.2155ZM65.3915 25.392C65.3915 26.6507 66.0208 27.28 67.2795 27.28H72.6235V22.64H67.2795C66.0208 22.64 65.3915 23.2693 65.3915 24.528V25.392ZM80.4618 30V15.28C81.2084 13.9573 82.6271 13.296 84.7178 13.296H88.0138L89.4858 14.384V16.016H85.3258C84.4938 16.016 83.9071 16.2293 83.5658 16.656V30H80.4618ZM92.8085 30V6.32H95.9125V13.296H101.865C105.129 13.296 106.76 14.928 106.76 18.192V25.072C106.76 28.3573 105.129 30 101.865 30H92.8085ZM95.9125 27.28H101.801C103.038 27.28 103.657 26.6507 103.657 25.392V17.872C103.657 16.6347 103.038 16.016 101.801 16.016H95.9125V27.28ZM111.24 25.072V18.192C111.24 14.928 112.872 13.296 116.136 13.296H120.296C123.56 13.296 125.192 14.928 125.192 18.192V22.8H114.344V25.392C114.344 26.6507 114.973 27.28 116.232 27.28H124.552V28.912L123.112 30H116.136C112.872 30 111.24 28.3573 111.24 25.072ZM114.344 20.368H122.088V17.872C122.088 16.6347 121.469 16.016 120.232 16.016H116.232C114.973 16.016 114.344 16.6347 114.344 17.872V20.368ZM133.966 30C130.68 30 129.038 28.368 129.038 25.104C129.038 21.84 130.68 20.208 133.966 20.208H139.374V17.872C139.374 16.6347 138.755 16.016 137.518 16.016H130.67V14.384L132.141 13.296H137.582C140.846 13.296 142.478 14.928 142.478 18.192V30H133.966ZM132.141 25.392C132.141 26.6507 132.771 27.28 134.03 27.28H139.374V22.64H134.03C132.771 22.64 132.141 23.2693 132.141 24.528V25.392ZM147.212 30V15.28C147.958 13.9573 149.377 13.296 151.468 13.296H154.764L156.236 14.384V16.016H152.076C151.244 16.016 150.657 16.2293 150.316 16.656V30H147.212ZM159.431 10.288V6.896H162.759V10.288H159.431ZM159.559 30V13.296H162.663V30H159.559ZM171.684 30C168.399 30 166.756 28.368 166.756 25.104C166.756 21.84 168.399 20.208 171.684 20.208H177.092V17.872C177.092 16.6347 176.474 16.016 175.236 16.016H168.388V14.384L169.86 13.296H175.3C178.564 13.296 180.196 14.928 180.196 18.192V30H171.684ZM169.86 25.392C169.86 26.6507 170.49 27.28 171.748 27.28H177.092V22.64H171.748C170.49 22.64 169.86 23.2693 169.86 24.528V25.392Z" fill="#D4B559"/>
<path d="M20.9485 15.0251C20.8695 14.9098 20.8141 14.7801 20.7853 14.6434C20.7565 14.5067 20.755 14.3657 20.7807 14.2284C20.8065 14.0911 20.8591 13.9602 20.9355 13.8433C21.012 13.7263 21.1107 13.6256 21.2261 13.5469L30.2122 7.39765C30.4449 7.25365 30.7243 7.20502 30.992 7.2619C31.2597 7.31878 31.4952 7.47678 31.6493 7.70297C31.8034 7.92915 31.8642 8.20609 31.8192 8.47605C31.7742 8.74602 31.6267 8.98819 31.4075 9.1521L22.4201 15.3013C22.244 15.4228 22.035 15.4876 21.8211 15.4873C21.6491 15.4866 21.4798 15.4442 21.3278 15.3637C21.1759 15.2832 21.0457 15.167 20.9485 15.0251ZM31.6891 26.3261C31.5298 26.5585 31.2848 26.7182 31.0078 26.77C30.7309 26.8219 30.4447 26.7615 30.2122 26.6023L18.0625 18.2883L12.4166 22.1505C12.8474 23.2444 12.86 24.4587 12.4521 25.5613C12.0441 26.664 11.2442 27.5776 10.2052 28.1278C9.16617 28.6779 7.96087 28.826 6.81959 28.5436C5.67831 28.2613 4.68108 27.5683 4.01843 26.5971C3.35578 25.626 3.07417 24.4447 3.22742 23.2791C3.38066 22.1134 3.95802 21.0451 4.84916 20.2782C5.7403 19.5113 6.88276 19.0997 8.05823 19.1219C9.23371 19.1441 10.3598 19.5987 11.2213 20.3987L16.1805 17L11.2147 13.6013C10.3561 14.3972 9.23438 14.8489 8.06382 14.8703C6.89327 14.8916 5.75586 14.4811 4.8688 13.717C3.98173 12.953 3.40717 11.889 3.25483 10.7282C3.10248 9.56737 3.38303 8.39113 4.0429 7.42406C4.70277 6.45699 5.69572 5.76684 6.83214 5.48542C7.96856 5.20399 9.16883 5.35101 10.2037 5.89838C11.2386 6.44576 12.0357 7.35514 12.4426 8.45288C12.8496 9.55063 12.838 10.7598 12.41 11.8495L31.4022 24.8479C31.5183 24.9259 31.6179 25.0261 31.6952 25.1427C31.7725 25.2593 31.826 25.39 31.8527 25.5274C31.8793 25.6647 31.8786 25.806 31.8505 25.9431C31.8224 26.0801 31.7676 26.2103 31.6891 26.3261ZM10.625 23.9062C10.6251 23.2917 10.4122 22.6961 10.0224 22.221C9.63263 21.7459 9.09018 21.4206 8.48747 21.3006C7.88475 21.1806 7.25907 21.2732 6.71704 21.5628C6.175 21.8524 5.75015 22.321 5.51487 22.8887C5.27959 23.4564 5.24844 24.0882 5.42673 24.6763C5.60502 25.2644 5.98172 25.7725 6.49264 26.114C7.00356 26.4555 7.61708 26.6093 8.22868 26.5492C8.84027 26.489 9.4121 26.2187 9.84671 25.7842C10.0943 25.5383 10.2905 25.2456 10.4241 24.9233C10.5577 24.6009 10.626 24.2552 10.625 23.9062ZM9.84671 11.9704C10.2183 11.5989 10.4713 11.1256 10.5739 10.6103C10.6765 10.0951 10.6239 9.56094 10.4229 9.07553C10.2219 8.59011 9.88139 8.17522 9.44456 7.88331C9.00772 7.5914 8.49413 7.43559 7.96874 7.43559C7.44335 7.43559 6.92976 7.5914 6.49292 7.88331C6.05609 8.17522 5.71563 8.59011 5.51461 9.07553C5.31359 9.56094 5.26103 10.0951 5.36359 10.6103C5.46615 11.1256 5.71921 11.5989 6.09077 11.9704C6.33607 12.2193 6.62842 12.4171 6.95082 12.552C7.27322 12.687 7.61924 12.7564 7.96874 12.7564C8.31825 12.7564 8.66426 12.687 8.98666 12.552C9.30907 12.4171 9.60142 12.2193 9.84671 11.9704Z" fill="#F5CD54"/>
</svg>
