<svg width="183" height="34" viewBox="0 0 183 34" fill="none" xmlns="http://www.w3.org/2000/svg">
    <path
        d="M42.816 30V7.92H53.024C56.3733 7.92 58.048 9.60533 58.048 12.976V15.088C58.048 15.8133 57.8347 16.432 57.408 16.944L56.288 18.288L57.632 19.408C58.336 19.984 58.688 20.8373 58.688 21.968V24.944C58.688 28.3147 57.0133 30 53.664 30H42.816ZM46.048 27.056H53.632C54.848 27.056 55.456 26.4587 55.456 25.264V21.776C55.456 20.56 54.848 19.952 53.632 19.952H46.048V27.056ZM46.048 17.008H52.992C54.208 17.008 54.816 16.4 54.816 15.184V12.656C54.816 11.4613 54.208 10.864 52.992 10.864H46.048V17.008ZM67.2155 30C63.9302 30 62.2875 28.368 62.2875 25.104C62.2875 21.84 63.9302 20.208 67.2155 20.208H72.6235V17.872C72.6235 16.6347 72.0048 16.016 70.7675 16.016H63.9195V14.384L65.3915 13.296H70.8315C74.0955 13.296 75.7275 14.928 75.7275 18.192V30H67.2155ZM65.3915 25.392C65.3915 26.6507 66.0208 27.28 67.2795 27.28H72.6235V22.64H67.2795C66.0208 22.64 65.3915 23.2693 65.3915 24.528V25.392ZM80.4618 30V15.28C81.2084 13.9573 82.6271 13.296 84.7178 13.296H88.0138L89.4858 14.384V16.016H85.3258C84.4938 16.016 83.9071 16.2293 83.5658 16.656V30H80.4618ZM92.8085 30V6.32H95.9125V13.296H101.865C105.129 13.296 106.76 14.928 106.76 18.192V25.072C106.76 28.3573 105.129 30 101.865 30H92.8085ZM95.9125 27.28H101.801C103.038 27.28 103.657 26.6507 103.657 25.392V17.872C103.657 16.6347 103.038 16.016 101.801 16.016H95.9125V27.28ZM111.24 25.072V18.192C111.24 14.928 112.872 13.296 116.136 13.296H120.296C123.56 13.296 125.192 14.928 125.192 18.192V22.8H114.344V25.392C114.344 26.6507 114.973 27.28 116.232 27.28H124.552V28.912L123.112 30H116.136C112.872 30 111.24 28.3573 111.24 25.072ZM114.344 20.368H122.088V17.872C122.088 16.6347 121.469 16.016 120.232 16.016H116.232C114.973 16.016 114.344 16.6347 114.344 17.872V20.368ZM133.966 30C130.68 30 129.038 28.368 129.038 25.104C129.038 21.84 130.68 20.208 133.966 20.208H139.374V17.872C139.374 16.6347 138.755 16.016 137.518 16.016H130.67V14.384L132.141 13.296H137.582C140.846 13.296 142.478 14.928 142.478 18.192V30H133.966ZM132.141 25.392C132.141 26.6507 132.771 27.28 134.03 27.28H139.374V22.64H134.03C132.771 22.64 132.141 23.2693 132.141 24.528V25.392ZM147.212 30V15.28C147.958 13.9573 149.377 13.296 151.468 13.296H154.764L156.236 14.384V16.016H152.076C151.244 16.016 150.657 16.2293 150.316 16.656V30H147.212ZM159.431 10.288V6.896H162.759V10.288H159.431ZM159.559 30V13.296H162.663V30H159.559ZM171.684 30C168.399 30 166.756 28.368 166.756 25.104C166.756 21.84 168.399 20.208 171.684 20.208H177.092V17.872C177.092 16.6347 176.474 16.016 175.236 16.016H168.388V14.384L169.86 13.296H175.3C178.564 13.296 180.196 14.928 180.196 18.192V30H171.684ZM169.86 25.392C169.86 26.6507 170.49 27.28 171.748 27.28H177.092V22.64H171.748C170.49 22.64 169.86 23.2693 169.86 24.528V25.392Z"
        fill="#D4B559" />
    <path
        d="M42.816 30H41.816V31H42.816V30ZM42.816 7.92V6.92H41.816V7.92H42.816ZM57.408 16.944L58.1762 17.5842V17.5842L57.408 16.944ZM56.288 18.288L55.5198 17.6478L54.8796 18.416L55.6478 19.0562L56.288 18.288ZM57.632 19.408L56.9918 20.1763L56.9988 20.182L57.632 19.408ZM46.048 27.056H45.048V28.056H46.048V27.056ZM46.048 19.952V18.952H45.048V19.952H46.048ZM46.048 17.008H45.048V18.008H46.048V17.008ZM46.048 10.864V9.864H45.048V10.864H46.048ZM43.816 30V7.92H41.816V30H43.816ZM42.816 8.92H53.024V6.92H42.816V8.92ZM53.024 8.92C54.5429 8.92 55.4988 9.30125 56.0827 9.88886C56.6677 10.4776 57.048 11.4432 57.048 12.976H59.048C59.048 11.1381 58.591 9.5757 57.5013 8.47914C56.4106 7.38141 54.8544 6.92 53.024 6.92V8.92ZM57.048 12.976V15.088H59.048V12.976H57.048ZM57.048 15.088C57.048 15.6016 56.9031 15.9879 56.6398 16.3038L58.1762 17.5842C58.7663 16.8761 59.048 16.0251 59.048 15.088H57.048ZM56.6398 16.3038L55.5198 17.6478L57.0562 18.9282L58.1762 17.5842L56.6398 16.3038ZM55.6478 19.0562L56.9918 20.1762L58.2722 18.6398L56.9282 17.5198L55.6478 19.0562ZM56.9988 20.182C57.4152 20.5227 57.688 21.0575 57.688 21.968H59.688C59.688 20.6171 59.2568 19.4453 58.2652 18.634L56.9988 20.182ZM57.688 21.968V24.944H59.688V21.968H57.688ZM57.688 24.944C57.688 26.4768 57.3077 27.4424 56.7227 28.0311C56.1388 28.6187 55.1829 29 53.664 29V31C55.4944 31 57.0506 30.5386 58.1413 29.4409C59.231 28.3443 59.688 26.7819 59.688 24.944H57.688ZM53.664 29H42.816V31H53.664V29ZM46.048 28.056H53.632V26.056H46.048V28.056ZM53.632 28.056C54.3897 28.056 55.1426 27.8698 55.7008 27.3213C56.2623 26.7697 56.456 26.02 56.456 25.264H54.456C54.456 25.7027 54.3457 25.849 54.2992 25.8947C54.2494 25.9435 54.0903 26.056 53.632 26.056V28.056ZM56.456 25.264V21.776H54.456V25.264H56.456ZM56.456 21.776C56.456 21.0139 56.2648 20.2586 55.7071 19.7009C55.1494 19.1432 54.3941 18.952 53.632 18.952V20.952C54.0859 20.952 54.2426 21.0648 54.2929 21.1151C54.3432 21.1654 54.456 21.3221 54.456 21.776H56.456ZM53.632 18.952H46.048V20.952H53.632V18.952ZM45.048 19.952V27.056H47.048V19.952H45.048ZM46.048 18.008H52.992V16.008H46.048V18.008ZM52.992 18.008C53.7541 18.008 54.5094 17.8168 55.0671 17.2591C55.6248 16.7014 55.816 15.9461 55.816 15.184H53.816C53.816 15.6379 53.7032 15.7946 53.6529 15.8449C53.6026 15.8952 53.4459 16.008 52.992 16.008V18.008ZM55.816 15.184V12.656H53.816V15.184H55.816ZM55.816 12.656C55.816 11.9 55.6223 11.1503 55.0608 10.5987C54.5026 10.0502 53.7497 9.864 52.992 9.864V11.864C53.4503 11.864 53.6094 11.9765 53.6592 12.0253C53.7057 12.071 53.816 12.2173 53.816 12.656H55.816ZM52.992 9.864H46.048V11.864H52.992V9.864ZM45.048 10.864V17.008H47.048V10.864H45.048ZM72.6235 20.208V21.208H73.6235V20.208H72.6235ZM63.9195 16.016H62.9195V17.016H63.9195V16.016ZM63.9195 14.384L63.3251 13.5798L62.9195 13.8796V14.384H63.9195ZM65.3915 13.296V12.296H65.062L64.7971 12.4918L65.3915 13.296ZM75.7275 30V31H76.7275V30H75.7275ZM72.6235 27.28V28.28H73.6235V27.28H72.6235ZM72.6235 22.64H73.6235V21.64H72.6235V22.64ZM67.2155 29C65.7253 29 64.7917 28.6303 64.2243 28.0666C63.6581 27.504 63.2875 26.5802 63.2875 25.104H61.2875C61.2875 26.8918 61.7383 28.416 62.8147 29.4854C63.8899 30.5537 65.4203 31 67.2155 31V29ZM63.2875 25.104C63.2875 23.6278 63.6581 22.704 64.2243 22.1414C64.7917 21.5777 65.7253 21.208 67.2155 21.208V19.208C65.4203 19.208 63.8899 19.6543 62.8147 20.7226C61.7383 21.792 61.2875 23.3162 61.2875 25.104H63.2875ZM67.2155 21.208H72.6235V19.208H67.2155V21.208ZM73.6235 20.208V17.872H71.6235V20.208H73.6235ZM73.6235 17.872C73.6235 17.0992 73.4296 16.3359 72.8666 15.7729C72.3036 15.2099 71.5403 15.016 70.7675 15.016V17.016C71.232 17.016 71.3967 17.1315 71.4524 17.1871C71.508 17.2428 71.6235 17.4075 71.6235 17.872H73.6235ZM70.7675 15.016H63.9195V17.016H70.7675V15.016ZM64.9195 16.016V14.384H62.9195V16.016H64.9195ZM64.5139 15.1882L65.9859 14.1002L64.7971 12.4918L63.3251 13.5798L64.5139 15.1882ZM65.3915 14.296H70.8315V12.296H65.3915V14.296ZM70.8315 14.296C72.3094 14.296 73.2341 14.6648 73.7964 15.2271C74.3587 15.7894 74.7275 16.7141 74.7275 18.192H76.7275C76.7275 16.4059 76.2803 14.8826 75.2106 13.8129C74.1409 12.7432 72.6176 12.296 70.8315 12.296V14.296ZM74.7275 18.192V30H76.7275V18.192H74.7275ZM75.7275 29H67.2155V31H75.7275V29ZM64.3915 25.392C64.3915 26.1755 64.588 26.9468 65.1564 27.5151C65.7247 28.0835 66.496 28.28 67.2795 28.28V26.28C66.8043 26.28 66.6316 26.1619 66.5706 26.1009C66.5096 26.0399 66.3915 25.8672 66.3915 25.392H64.3915ZM67.2795 28.28H72.6235V26.28H67.2795V28.28ZM73.6235 27.28V22.64H71.6235V27.28H73.6235ZM72.6235 21.64H67.2795V23.64H72.6235V21.64ZM67.2795 21.64C66.496 21.64 65.7247 21.8365 65.1564 22.4049C64.588 22.9732 64.3915 23.7445 64.3915 24.528H66.3915C66.3915 24.0528 66.5096 23.8801 66.5706 23.8191C66.6316 23.7581 66.8043 23.64 67.2795 23.64V21.64ZM64.3915 24.528V25.392H66.3915V24.528H64.3915ZM80.4618 30H79.4618V31H80.4618V30ZM80.4618 15.28L79.5909 14.7884L79.4618 15.0172V15.28H80.4618ZM88.0137 13.296L88.6081 12.4918L88.3432 12.296H88.0137V13.296ZM89.4857 14.384H90.4857V13.8796L90.0801 13.5798L89.4857 14.384ZM89.4857 16.016V17.016H90.4857V16.016H89.4857ZM83.5658 16.656L82.7849 16.0313L82.5658 16.3052V16.656H83.5658ZM83.5658 30V31H84.5658V30H83.5658ZM81.4618 30V15.28H79.4618V30H81.4618ZM81.3326 15.7716C81.8375 14.8771 82.8344 14.296 84.7178 14.296V12.296C82.4198 12.296 80.5793 13.0376 79.5909 14.7884L81.3326 15.7716ZM84.7178 14.296H88.0137V12.296H84.7178V14.296ZM87.4194 14.1002L88.8914 15.1882L90.0801 13.5798L88.6081 12.4918L87.4194 14.1002ZM88.4857 14.384V16.016H90.4857V14.384H88.4857ZM89.4857 15.016H85.3258V17.016H89.4857V15.016ZM85.3258 15.016C84.3517 15.016 83.3981 15.2648 82.7849 16.0313L84.3466 17.2807C84.4161 17.1939 84.6358 17.016 85.3258 17.016V15.016ZM82.5658 16.656V30H84.5658V16.656H82.5658ZM83.5658 29H80.4618V31H83.5658V29ZM92.8085 30H91.8085V31H92.8085V30ZM92.8085 6.32V5.32H91.8085V6.32H92.8085ZM95.9125 6.32H96.9125V5.32H95.9125V6.32ZM95.9125 13.296H94.9125V14.296H95.9125V13.296ZM95.9125 27.28H94.9125V28.28H95.9125V27.28ZM95.9125 16.016V15.016H94.9125V16.016H95.9125ZM93.8085 30V6.32H91.8085V30H93.8085ZM92.8085 7.32H95.9125V5.32H92.8085V7.32ZM94.9125 6.32V13.296H96.9125V6.32H94.9125ZM95.9125 14.296H101.865V12.296H95.9125V14.296ZM101.865 14.296C103.342 14.296 104.267 14.6648 104.829 15.2271C105.392 15.7894 105.76 16.7141 105.76 18.192H107.76C107.76 16.4059 107.313 14.8826 106.244 13.8129C105.174 12.7432 103.651 12.296 101.865 12.296V14.296ZM105.76 18.192V25.072H107.76V18.192H105.76ZM105.76 25.072C105.76 26.5622 105.391 27.4958 104.827 28.0632C104.265 28.6294 103.341 29 101.865 29V31C103.652 31 105.176 30.5492 106.246 29.4728C107.314 28.3976 107.76 26.8672 107.76 25.072H105.76ZM101.865 29H92.8085V31H101.865V29ZM95.9125 28.28H101.8V26.28H95.9125V28.28ZM101.8 28.28C102.578 28.28 103.343 28.0811 103.906 27.509C104.465 26.9401 104.657 26.1712 104.657 25.392H102.657C102.657 25.8714 102.539 26.0465 102.479 26.107C102.423 26.1642 102.261 26.28 101.8 26.28V28.28ZM104.657 25.392V17.872H102.657V25.392H104.657ZM104.657 17.872C104.657 17.0992 104.463 16.3359 103.9 15.7729C103.337 15.2099 102.573 15.016 101.8 15.016V17.016C102.265 17.016 102.43 17.1315 102.485 17.1871C102.541 17.2428 102.657 17.4075 102.657 17.872H104.657ZM101.8 15.016H95.9125V17.016H101.8V15.016ZM94.9125 16.016V27.28H96.9125V16.016H94.9125ZM125.192 22.8V23.8H126.192V22.8H125.192ZM114.344 22.8V21.8H113.344V22.8H114.344ZM124.552 27.28H125.552V26.28H124.552V27.28ZM124.552 28.912L125.155 29.7099L125.552 29.4098V28.912H124.552ZM123.112 30V31H123.447L123.715 30.7979L123.112 30ZM114.344 20.368H113.344V21.368H114.344V20.368ZM122.088 20.368V21.368H123.088V20.368H122.088ZM112.24 25.072V18.192H110.24V25.072H112.24ZM112.24 18.192C112.24 16.7141 112.609 15.7894 113.171 15.2271C113.733 14.6648 114.658 14.296 116.136 14.296V12.296C114.35 12.296 112.827 12.7432 111.757 13.8129C110.687 14.8826 110.24 16.4059 110.24 18.192H112.24ZM116.136 14.296H120.296V12.296H116.136V14.296ZM120.296 14.296C121.774 14.296 122.699 14.6648 123.261 15.2271C123.823 15.7894 124.192 16.7141 124.192 18.192H126.192C126.192 16.4059 125.745 14.8826 124.675 13.8129C123.605 12.7432 122.082 12.296 120.296 12.296V14.296ZM124.192 18.192V22.8H126.192V18.192H124.192ZM125.192 21.8H114.344V23.8H125.192V21.8ZM113.344 22.8V25.392H115.344V22.8H113.344ZM113.344 25.392C113.344 26.1755 113.541 26.9468 114.109 27.5151C114.677 28.0835 115.449 28.28 116.232 28.28V26.28C115.757 26.28 115.584 26.1619 115.523 26.1009C115.462 26.0399 115.344 25.8672 115.344 25.392H113.344ZM116.232 28.28H124.552V26.28H116.232V28.28ZM123.552 27.28V28.912H125.552V27.28H123.552ZM123.949 28.1141L122.509 29.2021L123.715 30.7979L125.155 29.7099L123.949 28.1141ZM123.112 29H116.136V31H123.112V29ZM116.136 29C114.66 29 113.736 28.6294 113.173 28.0632C112.61 27.4958 112.24 26.5622 112.24 25.072H110.24C110.24 26.8672 110.686 28.3976 111.755 29.4728C112.824 30.5492 114.348 31 116.136 31V29ZM114.344 21.368H122.088V19.368H114.344V21.368ZM123.088 20.368V17.872H121.088V20.368H123.088ZM123.088 17.872C123.088 17.0992 122.894 16.3359 122.331 15.7729C121.768 15.2099 121.005 15.016 120.232 15.016V17.016C120.697 17.016 120.861 17.1315 120.917 17.1871C120.973 17.2428 121.088 17.4075 121.088 17.872H123.088ZM120.232 15.016H116.232V17.016H120.232V15.016ZM116.232 15.016C115.453 15.016 114.684 15.2076 114.115 15.7669C113.543 16.3292 113.344 17.0948 113.344 17.872H115.344C115.344 17.4118 115.46 17.2494 115.517 17.1931C115.577 17.1337 115.753 17.016 116.232 17.016V15.016ZM113.344 17.872V20.368H115.344V17.872H113.344ZM139.374 20.208V21.208H140.374V20.208H139.374ZM130.67 16.016H129.67V17.016H130.67V16.016ZM130.67 14.384L130.075 13.5798L129.67 13.8796V14.384H130.67ZM132.142 13.296V12.296H131.812L131.547 12.4918L132.142 13.296ZM142.478 30V31H143.478V30H142.478ZM139.374 27.28V28.28H140.374V27.28H139.374ZM139.374 22.64H140.374V21.64H139.374V22.64ZM133.965 29C132.475 29 131.542 28.6303 130.974 28.0666C130.408 27.504 130.037 26.5802 130.037 25.104H128.037C128.037 26.8918 128.488 28.416 129.565 29.4854C130.64 30.5537 132.17 31 133.965 31V29ZM130.037 25.104C130.037 23.6278 130.408 22.704 130.974 22.1414C131.542 21.5777 132.475 21.208 133.965 21.208V19.208C132.17 19.208 130.64 19.6543 129.565 20.7226C128.488 21.792 128.037 23.3162 128.037 25.104H130.037ZM133.965 21.208H139.374V19.208H133.965V21.208ZM140.374 20.208V17.872H138.374V20.208H140.374ZM140.374 17.872C140.374 17.0992 140.18 16.3359 139.617 15.7729C139.054 15.2099 138.29 15.016 137.518 15.016V17.016C137.982 17.016 138.147 17.1315 138.202 17.1871C138.258 17.2428 138.374 17.4075 138.374 17.872H140.374ZM137.518 15.016H130.67V17.016H137.518V15.016ZM131.67 16.016V14.384H129.67V16.016H131.67ZM131.264 15.1882L132.736 14.1002L131.547 12.4918L130.075 13.5798L131.264 15.1882ZM132.142 14.296H137.581V12.296H132.142V14.296ZM137.581 14.296C139.059 14.296 139.984 14.6648 140.546 15.2271C141.109 15.7894 141.478 16.7141 141.478 18.192H143.478C143.478 16.4059 143.03 14.8826 141.961 13.8129C140.891 12.7432 139.368 12.296 137.581 12.296V14.296ZM141.478 18.192V30H143.478V18.192H141.478ZM142.478 29H133.965V31H142.478V29ZM131.142 25.392C131.142 26.1755 131.338 26.9468 131.906 27.5151C132.475 28.0835 133.246 28.28 134.03 28.28V26.28C133.554 26.28 133.382 26.1619 133.321 26.1009C133.26 26.0399 133.142 25.8672 133.142 25.392H131.142ZM134.03 28.28H139.374V26.28H134.03V28.28ZM140.374 27.28V22.64H138.374V27.28H140.374ZM139.374 21.64H134.03V23.64H139.374V21.64ZM134.03 21.64C133.246 21.64 132.475 21.8365 131.906 22.4049C131.338 22.9732 131.142 23.7445 131.142 24.528H133.142C133.142 24.0528 133.26 23.8801 133.321 23.8191C133.382 23.7581 133.554 23.64 134.03 23.64V21.64ZM131.142 24.528V25.392H133.142V24.528H131.142ZM147.212 30H146.212V31H147.212V30ZM147.212 15.28L146.341 14.7884L146.212 15.0172V15.28H147.212ZM154.764 13.296L155.358 12.4918L155.093 12.296H154.764V13.296ZM156.236 14.384H157.236V13.8796L156.83 13.5798L156.236 14.384ZM156.236 16.016V17.016H157.236V16.016H156.236ZM150.316 16.656L149.535 16.0313L149.316 16.3052V16.656H150.316ZM150.316 30V31H151.316V30H150.316ZM148.212 30V15.28H146.212V30H148.212ZM148.083 15.7716C148.588 14.8771 149.584 14.296 151.468 14.296V12.296C149.17 12.296 147.329 13.0376 146.341 14.7884L148.083 15.7716ZM151.468 14.296H154.764V12.296H151.468V14.296ZM154.169 14.1002L155.641 15.1882L156.83 13.5798L155.358 12.4918L154.169 14.1002ZM155.236 14.384V16.016H157.236V14.384H155.236ZM156.236 15.016H152.076V17.016H156.236V15.016ZM152.076 15.016C151.102 15.016 150.148 15.2648 149.535 16.0313L151.097 17.2807C151.166 17.1939 151.386 17.016 152.076 17.016V15.016ZM149.316 16.656V30H151.316V16.656H149.316ZM150.316 29H147.212V31H150.316V29ZM159.43 10.288H158.43V11.288H159.43V10.288ZM159.43 6.896V5.896H158.43V6.896H159.43ZM162.758 6.896H163.758V5.896H162.758V6.896ZM162.758 10.288V11.288H163.758V10.288H162.758ZM159.559 30H158.559V31H159.559V30ZM159.559 13.296V12.296H158.559V13.296H159.559ZM162.662 13.296H163.662V12.296H162.662V13.296ZM162.662 30V31H163.662V30H162.662ZM160.43 10.288V6.896H158.43V10.288H160.43ZM159.43 7.896H162.758V5.896H159.43V7.896ZM161.758 6.896V10.288H163.758V6.896H161.758ZM162.758 9.288H159.43V11.288H162.758V9.288ZM160.559 30V13.296H158.559V30H160.559ZM159.559 14.296H162.662V12.296H159.559V14.296ZM161.662 13.296V30H163.662V13.296H161.662ZM162.662 29H159.559V31H162.662V29ZM177.092 20.208V21.208H178.092V20.208H177.092ZM168.388 16.016H167.388V17.016H168.388V16.016ZM168.388 14.384L167.794 13.5798L167.388 13.8796V14.384H168.388ZM169.86 13.296V12.296H169.531L169.266 12.4918L169.86 13.296ZM180.196 30V31H181.196V30H180.196ZM177.092 27.28V28.28H178.092V27.28H177.092ZM177.092 22.64H178.092V21.64H177.092V22.64ZM171.684 29C170.194 29 169.26 28.6303 168.693 28.0666C168.127 27.504 167.756 26.5802 167.756 25.104H165.756C165.756 26.8918 166.207 28.416 167.283 29.4854C168.359 30.5537 169.889 31 171.684 31V29ZM167.756 25.104C167.756 23.6278 168.127 22.704 168.693 22.1414C169.26 21.5777 170.194 21.208 171.684 21.208V19.208C169.889 19.208 168.359 19.6543 167.283 20.7226C166.207 21.792 165.756 23.3162 165.756 25.104H167.756ZM171.684 21.208H177.092V19.208H171.684V21.208ZM178.092 20.208V17.872H176.092V20.208H178.092ZM178.092 17.872C178.092 17.0992 177.898 16.3359 177.335 15.7729C176.772 15.2099 176.009 15.016 175.236 15.016V17.016C175.701 17.016 175.865 17.1315 175.921 17.1871C175.977 17.2428 176.092 17.4075 176.092 17.872H178.092ZM175.236 15.016H168.388V17.016H175.236V15.016ZM169.388 16.016V14.384H167.388V16.016H169.388ZM168.983 15.1882L170.455 14.1002L169.266 12.4918L167.794 13.5798L168.983 15.1882ZM169.86 14.296H175.3V12.296H169.86V14.296ZM175.3 14.296C176.778 14.296 177.703 14.6648 178.265 15.2271C178.827 15.7894 179.196 16.7141 179.196 18.192H181.196C181.196 16.4059 180.749 14.8826 179.679 13.8129C178.61 12.7432 177.086 12.296 175.3 12.296V14.296ZM179.196 18.192V30H181.196V18.192H179.196ZM180.196 29H171.684V31H180.196V29ZM168.86 25.392C168.86 26.1755 169.057 26.9468 169.625 27.5151C170.193 28.0835 170.965 28.28 171.748 28.28V26.28C171.273 26.28 171.1 26.1619 171.039 26.1009C170.978 26.0399 170.86 25.8672 170.86 25.392H168.86ZM171.748 28.28H177.092V26.28H171.748V28.28ZM178.092 27.28V22.64H176.092V27.28H178.092ZM177.092 21.64H171.748V23.64H177.092V21.64ZM171.748 21.64C170.965 21.64 170.193 21.8365 169.625 22.4049C169.057 22.9732 168.86 23.7445 168.86 24.528H170.86C170.86 24.0528 170.978 23.8801 171.039 23.8191C171.1 23.7581 171.273 23.64 171.748 23.64V21.64ZM168.86 24.528V25.392H170.86V24.528H168.86Z"
        fill="black" />
    <path
        d="M42.816 30H41.816V31H42.816V30ZM42.816 7.92V6.92H41.816V7.92H42.816ZM57.408 16.944L58.1762 17.5842V17.5842L57.408 16.944ZM56.288 18.288L55.5198 17.6478L54.8796 18.416L55.6478 19.0562L56.288 18.288ZM57.632 19.408L56.9918 20.1763L56.9988 20.182L57.632 19.408ZM46.048 27.056H45.048V28.056H46.048V27.056ZM46.048 19.952V18.952H45.048V19.952H46.048ZM46.048 17.008H45.048V18.008H46.048V17.008ZM46.048 10.864V9.864H45.048V10.864H46.048ZM43.816 30V7.92H41.816V30H43.816ZM42.816 8.92H53.024V6.92H42.816V8.92ZM53.024 8.92C54.5429 8.92 55.4988 9.30125 56.0827 9.88886C56.6677 10.4776 57.048 11.4432 57.048 12.976H59.048C59.048 11.1381 58.591 9.5757 57.5013 8.47914C56.4106 7.38141 54.8544 6.92 53.024 6.92V8.92ZM57.048 12.976V15.088H59.048V12.976H57.048ZM57.048 15.088C57.048 15.6016 56.9031 15.9879 56.6398 16.3038L58.1762 17.5842C58.7663 16.8761 59.048 16.0251 59.048 15.088H57.048ZM56.6398 16.3038L55.5198 17.6478L57.0562 18.9282L58.1762 17.5842L56.6398 16.3038ZM55.6478 19.0562L56.9918 20.1762L58.2722 18.6398L56.9282 17.5198L55.6478 19.0562ZM56.9988 20.182C57.4152 20.5227 57.688 21.0575 57.688 21.968H59.688C59.688 20.6171 59.2568 19.4453 58.2652 18.634L56.9988 20.182ZM57.688 21.968V24.944H59.688V21.968H57.688ZM57.688 24.944C57.688 26.4768 57.3077 27.4424 56.7227 28.0311C56.1388 28.6187 55.1829 29 53.664 29V31C55.4944 31 57.0506 30.5386 58.1413 29.4409C59.231 28.3443 59.688 26.7819 59.688 24.944H57.688ZM53.664 29H42.816V31H53.664V29ZM46.048 28.056H53.632V26.056H46.048V28.056ZM53.632 28.056C54.3897 28.056 55.1426 27.8698 55.7008 27.3213C56.2623 26.7697 56.456 26.02 56.456 25.264H54.456C54.456 25.7027 54.3457 25.849 54.2992 25.8947C54.2494 25.9435 54.0903 26.056 53.632 26.056V28.056ZM56.456 25.264V21.776H54.456V25.264H56.456ZM56.456 21.776C56.456 21.0139 56.2648 20.2586 55.7071 19.7009C55.1494 19.1432 54.3941 18.952 53.632 18.952V20.952C54.0859 20.952 54.2426 21.0648 54.2929 21.1151C54.3432 21.1654 54.456 21.3221 54.456 21.776H56.456ZM53.632 18.952H46.048V20.952H53.632V18.952ZM45.048 19.952V27.056H47.048V19.952H45.048ZM46.048 18.008H52.992V16.008H46.048V18.008ZM52.992 18.008C53.7541 18.008 54.5094 17.8168 55.0671 17.2591C55.6248 16.7014 55.816 15.9461 55.816 15.184H53.816C53.816 15.6379 53.7032 15.7946 53.6529 15.8449C53.6026 15.8952 53.4459 16.008 52.992 16.008V18.008ZM55.816 15.184V12.656H53.816V15.184H55.816ZM55.816 12.656C55.816 11.9 55.6223 11.1503 55.0608 10.5987C54.5026 10.0502 53.7497 9.864 52.992 9.864V11.864C53.4503 11.864 53.6094 11.9765 53.6592 12.0253C53.7057 12.071 53.816 12.2173 53.816 12.656H55.816ZM52.992 9.864H46.048V11.864H52.992V9.864ZM45.048 10.864V17.008H47.048V10.864H45.048ZM72.6235 20.208V21.208H73.6235V20.208H72.6235ZM63.9195 16.016H62.9195V17.016H63.9195V16.016ZM63.9195 14.384L63.3251 13.5798L62.9195 13.8796V14.384H63.9195ZM65.3915 13.296V12.296H65.062L64.7971 12.4918L65.3915 13.296ZM75.7275 30V31H76.7275V30H75.7275ZM72.6235 27.28V28.28H73.6235V27.28H72.6235ZM72.6235 22.64H73.6235V21.64H72.6235V22.64ZM67.2155 29C65.7253 29 64.7917 28.6303 64.2243 28.0666C63.6581 27.504 63.2875 26.5802 63.2875 25.104H61.2875C61.2875 26.8918 61.7383 28.416 62.8147 29.4854C63.8899 30.5537 65.4203 31 67.2155 31V29ZM63.2875 25.104C63.2875 23.6278 63.6581 22.704 64.2243 22.1414C64.7917 21.5777 65.7253 21.208 67.2155 21.208V19.208C65.4203 19.208 63.8899 19.6543 62.8147 20.7226C61.7383 21.792 61.2875 23.3162 61.2875 25.104H63.2875ZM67.2155 21.208H72.6235V19.208H67.2155V21.208ZM73.6235 20.208V17.872H71.6235V20.208H73.6235ZM73.6235 17.872C73.6235 17.0992 73.4296 16.3359 72.8666 15.7729C72.3036 15.2099 71.5403 15.016 70.7675 15.016V17.016C71.232 17.016 71.3967 17.1315 71.4524 17.1871C71.508 17.2428 71.6235 17.4075 71.6235 17.872H73.6235ZM70.7675 15.016H63.9195V17.016H70.7675V15.016ZM64.9195 16.016V14.384H62.9195V16.016H64.9195ZM64.5139 15.1882L65.9859 14.1002L64.7971 12.4918L63.3251 13.5798L64.5139 15.1882ZM65.3915 14.296H70.8315V12.296H65.3915V14.296ZM70.8315 14.296C72.3094 14.296 73.2341 14.6648 73.7964 15.2271C74.3587 15.7894 74.7275 16.7141 74.7275 18.192H76.7275C76.7275 16.4059 76.2803 14.8826 75.2106 13.8129C74.1409 12.7432 72.6176 12.296 70.8315 12.296V14.296ZM74.7275 18.192V30H76.7275V18.192H74.7275ZM75.7275 29H67.2155V31H75.7275V29ZM64.3915 25.392C64.3915 26.1755 64.588 26.9468 65.1564 27.5151C65.7247 28.0835 66.496 28.28 67.2795 28.28V26.28C66.8043 26.28 66.6316 26.1619 66.5706 26.1009C66.5096 26.0399 66.3915 25.8672 66.3915 25.392H64.3915ZM67.2795 28.28H72.6235V26.28H67.2795V28.28ZM73.6235 27.28V22.64H71.6235V27.28H73.6235ZM72.6235 21.64H67.2795V23.64H72.6235V21.64ZM67.2795 21.64C66.496 21.64 65.7247 21.8365 65.1564 22.4049C64.588 22.9732 64.3915 23.7445 64.3915 24.528H66.3915C66.3915 24.0528 66.5096 23.8801 66.5706 23.8191C66.6316 23.7581 66.8043 23.64 67.2795 23.64V21.64ZM64.3915 24.528V25.392H66.3915V24.528H64.3915ZM80.4618 30H79.4618V31H80.4618V30ZM80.4618 15.28L79.5909 14.7884L79.4618 15.0172V15.28H80.4618ZM88.0137 13.296L88.6081 12.4918L88.3432 12.296H88.0137V13.296ZM89.4857 14.384H90.4857V13.8796L90.0801 13.5798L89.4857 14.384ZM89.4857 16.016V17.016H90.4857V16.016H89.4857ZM83.5658 16.656L82.7849 16.0313L82.5658 16.3052V16.656H83.5658ZM83.5658 30V31H84.5658V30H83.5658ZM81.4618 30V15.28H79.4618V30H81.4618ZM81.3326 15.7716C81.8375 14.8771 82.8344 14.296 84.7178 14.296V12.296C82.4198 12.296 80.5793 13.0376 79.5909 14.7884L81.3326 15.7716ZM84.7178 14.296H88.0137V12.296H84.7178V14.296ZM87.4194 14.1002L88.8914 15.1882L90.0801 13.5798L88.6081 12.4918L87.4194 14.1002ZM88.4857 14.384V16.016H90.4857V14.384H88.4857ZM89.4857 15.016H85.3258V17.016H89.4857V15.016ZM85.3258 15.016C84.3517 15.016 83.3981 15.2648 82.7849 16.0313L84.3466 17.2807C84.4161 17.1939 84.6358 17.016 85.3258 17.016V15.016ZM82.5658 16.656V30H84.5658V16.656H82.5658ZM83.5658 29H80.4618V31H83.5658V29ZM92.8085 30H91.8085V31H92.8085V30ZM92.8085 6.32V5.32H91.8085V6.32H92.8085ZM95.9125 6.32H96.9125V5.32H95.9125V6.32ZM95.9125 13.296H94.9125V14.296H95.9125V13.296ZM95.9125 27.28H94.9125V28.28H95.9125V27.28ZM95.9125 16.016V15.016H94.9125V16.016H95.9125ZM93.8085 30V6.32H91.8085V30H93.8085ZM92.8085 7.32H95.9125V5.32H92.8085V7.32ZM94.9125 6.32V13.296H96.9125V6.32H94.9125ZM95.9125 14.296H101.865V12.296H95.9125V14.296ZM101.865 14.296C103.342 14.296 104.267 14.6648 104.829 15.2271C105.392 15.7894 105.76 16.7141 105.76 18.192H107.76C107.76 16.4059 107.313 14.8826 106.244 13.8129C105.174 12.7432 103.651 12.296 101.865 12.296V14.296ZM105.76 18.192V25.072H107.76V18.192H105.76ZM105.76 25.072C105.76 26.5622 105.391 27.4958 104.827 28.0632C104.265 28.6294 103.341 29 101.865 29V31C103.652 31 105.176 30.5492 106.246 29.4728C107.314 28.3976 107.76 26.8672 107.76 25.072H105.76ZM101.865 29H92.8085V31H101.865V29ZM95.9125 28.28H101.8V26.28H95.9125V28.28ZM101.8 28.28C102.578 28.28 103.343 28.0811 103.906 27.509C104.465 26.9401 104.657 26.1712 104.657 25.392H102.657C102.657 25.8714 102.539 26.0465 102.479 26.107C102.423 26.1642 102.261 26.28 101.8 26.28V28.28ZM104.657 25.392V17.872H102.657V25.392H104.657ZM104.657 17.872C104.657 17.0992 104.463 16.3359 103.9 15.7729C103.337 15.2099 102.573 15.016 101.8 15.016V17.016C102.265 17.016 102.43 17.1315 102.485 17.1871C102.541 17.2428 102.657 17.4075 102.657 17.872H104.657ZM101.8 15.016H95.9125V17.016H101.8V15.016ZM94.9125 16.016V27.28H96.9125V16.016H94.9125ZM125.192 22.8V23.8H126.192V22.8H125.192ZM114.344 22.8V21.8H113.344V22.8H114.344ZM124.552 27.28H125.552V26.28H124.552V27.28ZM124.552 28.912L125.155 29.7099L125.552 29.4098V28.912H124.552ZM123.112 30V31H123.447L123.715 30.7979L123.112 30ZM114.344 20.368H113.344V21.368H114.344V20.368ZM122.088 20.368V21.368H123.088V20.368H122.088ZM112.24 25.072V18.192H110.24V25.072H112.24ZM112.24 18.192C112.24 16.7141 112.609 15.7894 113.171 15.2271C113.733 14.6648 114.658 14.296 116.136 14.296V12.296C114.35 12.296 112.827 12.7432 111.757 13.8129C110.687 14.8826 110.24 16.4059 110.24 18.192H112.24ZM116.136 14.296H120.296V12.296H116.136V14.296ZM120.296 14.296C121.774 14.296 122.699 14.6648 123.261 15.2271C123.823 15.7894 124.192 16.7141 124.192 18.192H126.192C126.192 16.4059 125.745 14.8826 124.675 13.8129C123.605 12.7432 122.082 12.296 120.296 12.296V14.296ZM124.192 18.192V22.8H126.192V18.192H124.192ZM125.192 21.8H114.344V23.8H125.192V21.8ZM113.344 22.8V25.392H115.344V22.8H113.344ZM113.344 25.392C113.344 26.1755 113.541 26.9468 114.109 27.5151C114.677 28.0835 115.449 28.28 116.232 28.28V26.28C115.757 26.28 115.584 26.1619 115.523 26.1009C115.462 26.0399 115.344 25.8672 115.344 25.392H113.344ZM116.232 28.28H124.552V26.28H116.232V28.28ZM123.552 27.28V28.912H125.552V27.28H123.552ZM123.949 28.1141L122.509 29.2021L123.715 30.7979L125.155 29.7099L123.949 28.1141ZM123.112 29H116.136V31H123.112V29ZM116.136 29C114.66 29 113.736 28.6294 113.173 28.0632C112.61 27.4958 112.24 26.5622 112.24 25.072H110.24C110.24 26.8672 110.686 28.3976 111.755 29.4728C112.824 30.5492 114.348 31 116.136 31V29ZM114.344 21.368H122.088V19.368H114.344V21.368ZM123.088 20.368V17.872H121.088V20.368H123.088ZM123.088 17.872C123.088 17.0992 122.894 16.3359 122.331 15.7729C121.768 15.2099 121.005 15.016 120.232 15.016V17.016C120.697 17.016 120.861 17.1315 120.917 17.1871C120.973 17.2428 121.088 17.4075 121.088 17.872H123.088ZM120.232 15.016H116.232V17.016H120.232V15.016ZM116.232 15.016C115.453 15.016 114.684 15.2076 114.115 15.7669C113.543 16.3292 113.344 17.0948 113.344 17.872H115.344C115.344 17.4118 115.46 17.2494 115.517 17.1931C115.577 17.1337 115.753 17.016 116.232 17.016V15.016ZM113.344 17.872V20.368H115.344V17.872H113.344ZM139.374 20.208V21.208H140.374V20.208H139.374ZM130.67 16.016H129.67V17.016H130.67V16.016ZM130.67 14.384L130.075 13.5798L129.67 13.8796V14.384H130.67ZM132.142 13.296V12.296H131.812L131.547 12.4918L132.142 13.296ZM142.478 30V31H143.478V30H142.478ZM139.374 27.28V28.28H140.374V27.28H139.374ZM139.374 22.64H140.374V21.64H139.374V22.64ZM133.965 29C132.475 29 131.542 28.6303 130.974 28.0666C130.408 27.504 130.037 26.5802 130.037 25.104H128.037C128.037 26.8918 128.488 28.416 129.565 29.4854C130.64 30.5537 132.17 31 133.965 31V29ZM130.037 25.104C130.037 23.6278 130.408 22.704 130.974 22.1414C131.542 21.5777 132.475 21.208 133.965 21.208V19.208C132.17 19.208 130.64 19.6543 129.565 20.7226C128.488 21.792 128.037 23.3162 128.037 25.104H130.037ZM133.965 21.208H139.374V19.208H133.965V21.208ZM140.374 20.208V17.872H138.374V20.208H140.374ZM140.374 17.872C140.374 17.0992 140.18 16.3359 139.617 15.7729C139.054 15.2099 138.29 15.016 137.518 15.016V17.016C137.982 17.016 138.147 17.1315 138.202 17.1871C138.258 17.2428 138.374 17.4075 138.374 17.872H140.374ZM137.518 15.016H130.67V17.016H137.518V15.016ZM131.67 16.016V14.384H129.67V16.016H131.67ZM131.264 15.1882L132.736 14.1002L131.547 12.4918L130.075 13.5798L131.264 15.1882ZM132.142 14.296H137.581V12.296H132.142V14.296ZM137.581 14.296C139.059 14.296 139.984 14.6648 140.546 15.2271C141.109 15.7894 141.478 16.7141 141.478 18.192H143.478C143.478 16.4059 143.03 14.8826 141.961 13.8129C140.891 12.7432 139.368 12.296 137.581 12.296V14.296ZM141.478 18.192V30H143.478V18.192H141.478ZM142.478 29H133.965V31H142.478V29ZM131.142 25.392C131.142 26.1755 131.338 26.9468 131.906 27.5151C132.475 28.0835 133.246 28.28 134.03 28.28V26.28C133.554 26.28 133.382 26.1619 133.321 26.1009C133.26 26.0399 133.142 25.8672 133.142 25.392H131.142ZM134.03 28.28H139.374V26.28H134.03V28.28ZM140.374 27.28V22.64H138.374V27.28H140.374ZM139.374 21.64H134.03V23.64H139.374V21.64ZM134.03 21.64C133.246 21.64 132.475 21.8365 131.906 22.4049C131.338 22.9732 131.142 23.7445 131.142 24.528H133.142C133.142 24.0528 133.26 23.8801 133.321 23.8191C133.382 23.7581 133.554 23.64 134.03 23.64V21.64ZM131.142 24.528V25.392H133.142V24.528H131.142ZM147.212 30H146.212V31H147.212V30ZM147.212 15.28L146.341 14.7884L146.212 15.0172V15.28H147.212ZM154.764 13.296L155.358 12.4918L155.093 12.296H154.764V13.296ZM156.236 14.384H157.236V13.8796L156.83 13.5798L156.236 14.384ZM156.236 16.016V17.016H157.236V16.016H156.236ZM150.316 16.656L149.535 16.0313L149.316 16.3052V16.656H150.316ZM150.316 30V31H151.316V30H150.316ZM148.212 30V15.28H146.212V30H148.212ZM148.083 15.7716C148.588 14.8771 149.584 14.296 151.468 14.296V12.296C149.17 12.296 147.329 13.0376 146.341 14.7884L148.083 15.7716ZM151.468 14.296H154.764V12.296H151.468V14.296ZM154.169 14.1002L155.641 15.1882L156.83 13.5798L155.358 12.4918L154.169 14.1002ZM155.236 14.384V16.016H157.236V14.384H155.236ZM156.236 15.016H152.076V17.016H156.236V15.016ZM152.076 15.016C151.102 15.016 150.148 15.2648 149.535 16.0313L151.097 17.2807C151.166 17.1939 151.386 17.016 152.076 17.016V15.016ZM149.316 16.656V30H151.316V16.656H149.316ZM150.316 29H147.212V31H150.316V29ZM159.43 10.288H158.43V11.288H159.43V10.288ZM159.43 6.896V5.896H158.43V6.896H159.43ZM162.758 6.896H163.758V5.896H162.758V6.896ZM162.758 10.288V11.288H163.758V10.288H162.758ZM159.559 30H158.559V31H159.559V30ZM159.559 13.296V12.296H158.559V13.296H159.559ZM162.662 13.296H163.662V12.296H162.662V13.296ZM162.662 30V31H163.662V30H162.662ZM160.43 10.288V6.896H158.43V10.288H160.43ZM159.43 7.896H162.758V5.896H159.43V7.896ZM161.758 6.896V10.288H163.758V6.896H161.758ZM162.758 9.288H159.43V11.288H162.758V9.288ZM160.559 30V13.296H158.559V30H160.559ZM159.559 14.296H162.662V12.296H159.559V14.296ZM161.662 13.296V30H163.662V13.296H161.662ZM162.662 29H159.559V31H162.662V29ZM177.092 20.208V21.208H178.092V20.208H177.092ZM168.388 16.016H167.388V17.016H168.388V16.016ZM168.388 14.384L167.794 13.5798L167.388 13.8796V14.384H168.388ZM169.86 13.296V12.296H169.531L169.266 12.4918L169.86 13.296ZM180.196 30V31H181.196V30H180.196ZM177.092 27.28V28.28H178.092V27.28H177.092ZM177.092 22.64H178.092V21.64H177.092V22.64ZM171.684 29C170.194 29 169.26 28.6303 168.693 28.0666C168.127 27.504 167.756 26.5802 167.756 25.104H165.756C165.756 26.8918 166.207 28.416 167.283 29.4854C168.359 30.5537 169.889 31 171.684 31V29ZM167.756 25.104C167.756 23.6278 168.127 22.704 168.693 22.1414C169.26 21.5777 170.194 21.208 171.684 21.208V19.208C169.889 19.208 168.359 19.6543 167.283 20.7226C166.207 21.792 165.756 23.3162 165.756 25.104H167.756ZM171.684 21.208H177.092V19.208H171.684V21.208ZM178.092 20.208V17.872H176.092V20.208H178.092ZM178.092 17.872C178.092 17.0992 177.898 16.3359 177.335 15.7729C176.772 15.2099 176.009 15.016 175.236 15.016V17.016C175.701 17.016 175.865 17.1315 175.921 17.1871C175.977 17.2428 176.092 17.4075 176.092 17.872H178.092ZM175.236 15.016H168.388V17.016H175.236V15.016ZM169.388 16.016V14.384H167.388V16.016H169.388ZM168.983 15.1882L170.455 14.1002L169.266 12.4918L167.794 13.5798L168.983 15.1882ZM169.86 14.296H175.3V12.296H169.86V14.296ZM175.3 14.296C176.778 14.296 177.703 14.6648 178.265 15.2271C178.827 15.7894 179.196 16.7141 179.196 18.192H181.196C181.196 16.4059 180.749 14.8826 179.679 13.8129C178.61 12.7432 177.086 12.296 175.3 12.296V14.296ZM179.196 18.192V30H181.196V18.192H179.196ZM180.196 29H171.684V31H180.196V29ZM168.86 25.392C168.86 26.1755 169.057 26.9468 169.625 27.5151C170.193 28.0835 170.965 28.28 171.748 28.28V26.28C171.273 26.28 171.1 26.1619 171.039 26.1009C170.978 26.0399 170.86 25.8672 170.86 25.392H168.86ZM171.748 28.28H177.092V26.28H171.748V28.28ZM178.092 27.28V22.64H176.092V27.28H178.092ZM177.092 21.64H171.748V23.64H177.092V21.64ZM171.748 21.64C170.965 21.64 170.193 21.8365 169.625 22.4049C169.057 22.9732 168.86 23.7445 168.86 24.528H170.86C170.86 24.0528 170.978 23.8801 171.039 23.8191C171.1 23.7581 171.273 23.64 171.748 23.64V21.64ZM168.86 24.528V25.392H170.86V24.528H168.86Z"
        fill="black" fill-opacity="0.2" />
    <path
        d="M20.9485 15.0251C20.8695 14.9098 20.8141 14.7801 20.7853 14.6434C20.7565 14.5067 20.755 14.3657 20.7807 14.2284C20.8065 14.0911 20.8591 13.9602 20.9355 13.8433C21.012 13.7263 21.1107 13.6256 21.2261 13.5469L30.2122 7.39765C30.4449 7.25365 30.7243 7.20502 30.992 7.2619C31.2597 7.31878 31.4952 7.47678 31.6493 7.70297C31.8034 7.92915 31.8642 8.20609 31.8192 8.47605C31.7742 8.74602 31.6267 8.98819 31.4075 9.1521L22.4201 15.3013C22.244 15.4228 22.035 15.4876 21.8211 15.4873C21.6491 15.4866 21.4798 15.4442 21.3278 15.3637C21.1759 15.2832 21.0457 15.167 20.9485 15.0251ZM31.6891 26.3261C31.5298 26.5585 31.2848 26.7182 31.0078 26.77C30.7309 26.8219 30.4447 26.7615 30.2122 26.6023L18.0625 18.2883L12.4166 22.1505C12.8474 23.2444 12.86 24.4587 12.4521 25.5613C12.0441 26.664 11.2442 27.5776 10.2052 28.1278C9.16617 28.6779 7.96087 28.826 6.81959 28.5436C5.67831 28.2613 4.68108 27.5683 4.01843 26.5971C3.35578 25.626 3.07417 24.4447 3.22742 23.2791C3.38066 22.1134 3.95802 21.0451 4.84916 20.2782C5.7403 19.5113 6.88276 19.0997 8.05823 19.1219C9.23371 19.1441 10.3598 19.5987 11.2213 20.3987L16.1805 17L11.2147 13.6013C10.3561 14.3972 9.23438 14.8489 8.06382 14.8703C6.89327 14.8916 5.75586 14.4811 4.8688 13.717C3.98173 12.953 3.40717 11.889 3.25483 10.7282C3.10248 9.56737 3.38303 8.39113 4.0429 7.42406C4.70277 6.45699 5.69572 5.76684 6.83214 5.48542C7.96856 5.20399 9.16883 5.35101 10.2037 5.89838C11.2386 6.44576 12.0357 7.35514 12.4426 8.45288C12.8496 9.55063 12.838 10.7598 12.41 11.8495L31.4022 24.8479C31.5183 24.9259 31.6179 25.0261 31.6952 25.1427C31.7725 25.2593 31.826 25.39 31.8527 25.5274C31.8793 25.6647 31.8786 25.806 31.8505 25.9431C31.8224 26.0801 31.7676 26.2103 31.6891 26.3261ZM10.625 23.9062C10.6251 23.2917 10.4122 22.6961 10.0224 22.221C9.63263 21.7459 9.09018 21.4206 8.48747 21.3006C7.88475 21.1806 7.25907 21.2732 6.71704 21.5628C6.175 21.8524 5.75015 22.321 5.51487 22.8887C5.27959 23.4564 5.24844 24.0882 5.42673 24.6763C5.60502 25.2644 5.98172 25.7725 6.49264 26.114C7.00356 26.4555 7.61708 26.6093 8.22868 26.5492C8.84027 26.489 9.4121 26.2187 9.84671 25.7842C10.0943 25.5383 10.2905 25.2456 10.4241 24.9233C10.5577 24.6009 10.626 24.2552 10.625 23.9062ZM9.84671 11.9704C10.2183 11.5989 10.4713 11.1256 10.5739 10.6103C10.6765 10.0951 10.6239 9.56094 10.4229 9.07553C10.2219 8.59011 9.88139 8.17522 9.44456 7.88331C9.00772 7.5914 8.49413 7.43559 7.96874 7.43559C7.44335 7.43559 6.92976 7.5914 6.49292 7.88331C6.05609 8.17522 5.71563 8.59011 5.51461 9.07553C5.31359 9.56094 5.26103 10.0951 5.36359 10.6103C5.46615 11.1256 5.71921 11.5989 6.09077 11.9704C6.33607 12.2193 6.62842 12.4171 6.95082 12.552C7.27322 12.687 7.61924 12.7564 7.96874 12.7564C8.31825 12.7564 8.66426 12.687 8.98666 12.552C9.30907 12.4171 9.60142 12.2193 9.84671 11.9704Z"
        fill="#F5CD54" />
</svg>
