<svg width="29" height="24" viewBox="0 0 29 24" fill="none" xmlns="http://www.w3.org/2000/svg">
    <path
        d="M17.9485 10.0251C17.8695 9.90983 17.8141 9.78014 17.7853 9.64344C17.7565 9.50674 17.755 9.3657 17.7807 9.2284C17.8065 9.0911 17.8591 8.96023 17.9355 8.84328C18.012 8.72634 18.1107 8.62561 18.2261 8.54686L27.2122 2.39765C27.4449 2.25365 27.7243 2.20502 27.992 2.2619C28.2597 2.31878 28.4952 2.47678 28.6493 2.70297C28.8034 2.92915 28.8642 3.20609 28.8192 3.47605C28.7742 3.74602 28.6267 3.98819 28.4075 4.1521L19.4201 10.3013C19.244 10.4228 19.035 10.4876 18.8211 10.4873C18.6491 10.4866 18.4798 10.4442 18.3278 10.3637C18.1759 10.2832 18.0457 10.167 17.9485 10.0251ZM28.6891 21.3261C28.5298 21.5585 28.2848 21.7182 28.0078 21.77C27.7309 21.8219 27.4447 21.7615 27.2122 21.6023L15.0625 13.2883L9.41663 17.1505C9.8474 18.2444 9.86002 19.4587 9.45207 20.5613C9.04413 21.664 8.24422 22.5776 7.20519 23.1278C6.16617 23.6779 4.96087 23.826 3.81959 23.5436C2.67831 23.2613 1.68108 22.5683 1.01843 21.5971C0.355778 20.626 0.0741728 19.4447 0.227418 18.2791C0.380663 17.1134 0.958015 16.0451 1.84916 15.2782C2.7403 14.5113 3.88276 14.0997 5.05823 14.1219C6.23371 14.1441 7.35979 14.5987 8.22132 15.3987L13.1805 12L8.21468 8.60132C7.35606 9.3972 6.23438 9.84895 5.06382 9.87029C3.89327 9.89164 2.75586 9.48108 1.8688 8.71703C0.981734 7.95298 0.407172 6.88897 0.254827 5.72817C0.102483 4.56737 0.383032 3.39113 1.0429 2.42406C1.70277 1.45699 2.69572 0.766844 3.83214 0.485419C4.96856 0.203994 6.16883 0.351005 7.20374 0.898381C8.23865 1.44576 9.03568 2.35514 9.44265 3.45288C9.84961 4.55063 9.83798 5.75981 9.40999 6.84952L28.4022 19.8479C28.5183 19.9259 28.6179 20.0261 28.6952 20.1427C28.7725 20.2593 28.826 20.39 28.8527 20.5274C28.8793 20.6647 28.8786 20.806 28.8505 20.9431C28.8224 21.0801 28.7676 21.2103 28.6891 21.3261ZM7.62499 18.9062C7.62512 18.2917 7.41216 17.6961 7.0224 17.221C6.63263 16.7459 6.09018 16.4206 5.48747 16.3006C4.88475 16.1806 4.25907 16.2732 3.71704 16.5628C3.175 16.8524 2.75015 17.321 2.51487 17.8887C2.27959 18.4564 2.24844 19.0882 2.42673 19.6763C2.60502 20.2644 2.98172 20.7725 3.49264 21.114C4.00356 21.4555 4.61708 21.6093 5.22868 21.5492C5.84027 21.489 6.4121 21.2187 6.84671 20.7842C7.09427 20.5383 7.29054 20.2456 7.42414 19.9233C7.55774 19.6009 7.62601 19.2552 7.62499 18.9062ZM6.84671 6.97038C7.21827 6.59893 7.47134 6.12563 7.57389 5.61035C7.67645 5.09506 7.62389 4.56094 7.42287 4.07553C7.22185 3.59011 6.88139 3.17522 6.44456 2.88331C6.00772 2.5914 5.49413 2.43559 4.96874 2.43559C4.44335 2.43559 3.92976 2.5914 3.49292 2.88331C3.05609 3.17522 2.71563 3.59011 2.51461 4.07553C2.31359 4.56094 2.26103 5.09506 2.36359 5.61035C2.46615 6.12563 2.71921 6.59893 3.09077 6.97038C3.33607 7.21935 3.62842 7.41706 3.95082 7.552C4.27322 7.68695 4.61924 7.75645 4.96874 7.75645C5.31825 7.75645 5.66426 7.68695 5.98666 7.552C6.30907 7.41706 6.60142 7.21935 6.84671 6.97038Z"
        fill="#F5CD54" />
</svg>
